<?xml version="1.0" encoding="iso-8859-1"?>
<svg version="1.1" id="timeline" xmlns="http://www.w3.org/2000/svg" xmlns:xlink="http://www.w3.org/1999/xlink" x="0px" y="0px"
	 viewBox="0 0 480 480" style="enable-background:new 0 0 480 480;" xml:space="preserve">
<g>
	<g>
		<path d="M384.001,288.003c-50.24,0-91.504,38.8-95.592,88h-70.384l-102.232-55.048c-2.464-1.32-5.48-1.272-7.888,0.176
			c-2.424,1.448-3.904,4.056-3.904,6.872v48h-12c-41.904,0-76-34.096-76-76s34.096-76,76-76h65.984l102.232,55.048
			c1.176,0.632,2.48,0.952,3.784,0.952c1.424,0,2.84-0.376,4.104-1.136c2.416-1.44,3.896-4.048,3.896-6.864v-48h124
			c46.32,0,84-37.68,84-84s-37.68-84-84-84h-9.984L283.793,0.955c-2.472-1.328-5.48-1.272-7.888,0.176
			c-2.424,1.448-3.904,4.056-3.904,6.872v48H114.017L11.793,0.955c-2.464-1.328-5.48-1.272-7.896,0.184
			c-2.416,1.44-3.896,4.048-3.896,6.864v112c0,2.816,1.48,5.424,3.896,6.864c1.264,0.76,2.68,1.136,4.104,1.136
			c1.304,0,2.608-0.32,3.792-0.952l102.224-55.048h157.984v48c0,2.816,1.48,5.424,3.896,6.864c1.264,0.76,2.68,1.136,4.104,1.136
			c1.304,0,2.608-0.32,3.792-0.952l102.224-55.048h9.984c37.496,0,68,30.504,68,68c0,37.496-30.504,68-68,68h-124v-48
			c0-2.816-1.48-5.424-3.896-6.864c-2.416-1.456-5.432-1.504-7.888-0.176l-102.232,55.04H92.001c-50.728,0-92,41.272-92,92
			s41.272,92,92,92h12v48c0,2.816,1.48,5.424,3.896,6.864c1.264,0.76,2.68,1.136,4.104,1.136c1.304,0,2.608-0.32,3.792-0.952
			l102.224-55.048h70.384c4.096,49.2,45.36,88,95.6,88c52.936,0,96-43.064,96-96C480.001,331.067,436.937,288.003,384.001,288.003z
			 M16.001,106.611V21.395l79.128,42.608L16.001,106.611z M288.001,106.611V21.395l79.128,42.608L288.001,106.611z M256.001,173.395
			v85.216l-79.128-42.608L256.001,173.395z M120.001,426.611v-85.216l79.128,42.608L120.001,426.611z M384.001,464.003
			c-44.112,0-80-35.888-80-80s35.888-80,80-80s80,35.888,80,80S428.113,464.003,384.001,464.003z"/>
	</g>
</g>
<g>
	<g>
		<path d="M435.881,377.011l-72-40c-2.472-1.376-5.504-1.336-7.936,0.096c-2.44,1.432-3.944,4.064-3.944,6.896v80
			c0,2.832,1.504,5.464,3.944,6.896c1.248,0.736,2.648,1.104,4.056,1.104c1.336,0,2.68-0.336,3.88-1.008l72-40
			c2.544-1.408,4.12-4.088,4.12-6.992S438.425,378.419,435.881,377.011z M368.001,410.411v-52.816l47.52,26.408L368.001,410.411z"/>
	</g>
</g>
</svg>
